<svg width="44" height="44" xmlns="http://www.w3.org/2000/svg"><path d="M18 0a3 3 0 0 1 1 5.829V13h4V8a1 1 0 0 1 1-1h9a1 1 0 0 1 0 2h-8v4h4a2 2 0 0 1 2 2v6h3.17a3.001 3.001 0 1 1 .001 2H31v6a2 2 0 0 1-2 2h-1v5h5.17a3.001 3.001 0 1 1 .001 2H27a1 1 0 0 1-1-1v-6h-4v7.171a3.001 3.001 0 1 1-2 0V31h-5a2 2 0 0 1-2-2h-3v3a1 1 0 0 1-2 0v-4a1 1 0 0 1 1-1h4v-4H5.829a3.001 3.001 0 1 1 0-2H13v-3H7a1 1 0 0 1-1-1V8.83a3.001 3.001 0 1 1 2-.001V16h5v-1a2 2 0 0 1 2-2h2V5.83A3.001 3.001 0 0 1 18 0ZM9 37a3 3 0 1 1 0 6 3 3 0 0 1 0-6Zm12 3a1 1 0 1 0 0 2 1 1 0 0 0 0-2ZM9 39a1 1 0 1 0 0 2 1 1 0 0 0 0-2Zm27-3a1 1 0 1 0 0 2 1 1 0 0 0 0-2ZM9 34a1 1 0 1 1 0 2 1 1 0 0 1 0-2Zm19-19H16a1 1 0 0 0-1 1v12a1 1 0 0 0 1 1h12a1 1 0 0 0 1-1V16a1 1 0 0 0-1-1Zm-4 3a2 2 0 0 1 2 2v4a2 2 0 0 1-2 2h-4a2 2 0 0 1-2-2v-4a2 2 0 0 1 2-2h4Zm-1 2h-2a1 1 0 0 0-1 1v2a1 1 0 0 0 1 1h2a1 1 0 0 0 1-1v-2a1 1 0 0 0-1-1ZM3 21a1 1 0 1 0 0 2 1 1 0 0 0 0-2Zm34 0a1 1 0 1 0 0 2 1 1 0 0 0 0-2Zm4-16a3 3 0 1 1 0 6 3 3 0 0 1 0-6Zm0 2a1 1 0 1 0 0 2 1 1 0 0 0 0-2Zm-5 0a1 1 0 1 1 0 2 1 1 0 0 1 0-2ZM7 5a1 1 0 1 0 0 2 1 1 0 0 0 0-2Zm11-3a1 1 0 1 0 0 2 1 1 0 0 0 0-2Z" fill="#000" fill-rule="nonzero"/></svg>