<svg width="44" height="44" xmlns="http://www.w3.org/2000/svg"><path d="M38 4a4 4 0 0 1 2.908 6.747A21.89 21.89 0 0 1 44 22c0 12.15-9.85 22-22 22-2.857 0-5.586-.544-8.09-1.535-.457-.331-.602-.749-.434-1.253.168-.503.563-.704 1.183-.602C16.932 41.507 19.409 42 22 42c11.046 0 20-8.954 20-20 0-3.72-1.016-7.204-2.786-10.188A4 4 0 1 1 38 4ZM11 39a1 1 0 1 1 0 2 1 1 0 0 1 0-2ZM22 0c2.447 0 4.801.4 7 1.137.456.233.634.614.533 1.143-.1.53-.45.794-1.051.794A19.974 19.974 0 0 0 22 2C10.954 2 2 10.954 2 22c0 3.271.785 6.36 2.178 9.086a4 4 0 1 1-1.793.887A21.898 21.898 0 0 1 0 22C0 9.85 9.85 0 22 0ZM5 33a2 2 0 1 0 0 4 2 2 0 0 0 0-4Zm26.652-20a2 2 0 0 1 1.709.961l2.143 3.526a2 2 0 0 1-.106 2.235L23.603 35.525a2 2 0 0 1-3.206 0L8.602 19.722a2 2 0 0 1-.106-2.235l2.143-3.526A2 2 0 0 1 12.35 13h19.303Zm0 2H12.348l-2.143 3.526L22 34.328l11.795-15.802L31.652 15ZM38 6a2 2 0 1 0 0 4 2 2 0 0 0 0-4Zm-6-3.5a1 1 0 1 1 0 2 1 1 0 0 1 0-2Z" fill="#000" fill-rule="nonzero"/></svg>