<svg width="44" height="44" xmlns="http://www.w3.org/2000/svg"><path d="M15 44a5.002 5.002 0 0 1-4.819-3.66L6.57 39.337a3.165 3.165 0 0 1-2.218-3.843 3.112 3.112 0 0 1 1.129-1.701 3.165 3.165 0 0 1-1.13-3.299 3.112 3.112 0 0 1 1.13-1.701 3.165 3.165 0 0 1-1.13-3.299 3.112 3.112 0 0 1 1.13-1.701 3.165 3.165 0 0 1-1.13-3.299 3.126 3.126 0 0 1 3.63-2.284l.232.055 1.787.496L10 5a5 5 0 0 1 5-5h18a5 5 0 0 1 5 5v8a4 4 0 0 1 4 4v13c0 3-.378 3.572-1 5-.235.536-.73 1.266-1.485 2.19l-.194.235a1.54 1.54 0 0 1-.66.434c-.234.073-.437.06-.61-.04a.703.703 0 0 1-.227-1.044c.567-.751.96-1.343 1.175-1.775.926-1.852.995-2.135 1-4.413L40 17a2 2 0 0 0-3.995-.15l-.003.085-.003.053L36 17v8.608c-3.745 1.165-6.484 4.203-5.928 10.892.134 1.617.776 3.554 1.924 5.81a1.163 1.163 0 0 1-.899 1.683l-.098.005L31 44H15Zm13.722-4.998H14.363a3.132 3.132 0 0 1-1.95 1.518A3 3 0 0 0 15 42l14.792.001a16.9 16.9 0 0 1-1.07-3ZM6.287 35.995c-.16.616.204 1.245.817 1.415l4.218 1.17.14.03a1.126 1.126 0 0 0 1.251-.832 1.165 1.165 0 0 0-.817-1.415l-4.218-1.17-.14-.03a1.126 1.126 0 0 0-1.251.832ZM33 2H15a3 3 0 0 0-3 3h18a1 1 0 0 1 0 2H12v12.315l.431.12a3.165 3.165 0 0 1 2.218 3.844 3.112 3.112 0 0 1-1.129 1.701 3.165 3.165 0 0 1 1.13 3.299 3.112 3.112 0 0 1-1.13 1.701 3.165 3.165 0 0 1 1.13 3.299 3.112 3.112 0 0 1-1.131 1.702 3.167 3.167 0 0 1 1.195 2.02h13.59A27.3 27.3 0 0 1 28.1 35.5c-.653-6.063 1.946-9.775 5.9-11.735V17c0-1.48.804-2.772 1.999-3.464L36 5a3 3 0 0 0-3-3Zm-9 30a1 1 0 1 1 0 2 1 1 0 0 1 0-2ZM6.287 30.995c-.16.616.204 1.245.817 1.415l4.218 1.17.14.03a1.126 1.126 0 0 0 1.251-.832 1.165 1.165 0 0 0-.817-1.415l-4.218-1.17-.14-.03a1.126 1.126 0 0 0-1.251.832ZM24 8a3 3 0 0 1 1 5.83v10.874l4-3.225v-2.65a3.001 3.001 0 1 1 2 0v3.692l-6 4.764V30a1 1 0 0 1-2 0v-1.736l-6-4.98v-2.455a3.001 3.001 0 1 1 2 0v1.515l4 3.321V13.829A3.001 3.001 0 0 1 24 8ZM6.287 25.995c-.16.616.204 1.245.817 1.415l4.218 1.17.14.03a1.126 1.126 0 0 0 1.251-.832 1.165 1.165 0 0 0-.817-1.415l-4.218-1.17-.14-.03a1.126 1.126 0 0 0-1.251.832Zm0-5c-.16.616.204 1.245.817 1.415l4.218 1.17.14.03a1.126 1.126 0 0 0 1.251-.832 1.165 1.165 0 0 0-.817-1.415l-4.218-1.17-.14-.03a1.126 1.126 0 0 0-1.251.832ZM18 17a1 1 0 1 0 0 2 1 1 0 0 0 0-2Zm12-2a1 1 0 1 0 0 2 1 1 0 0 0 0-2Zm-6-5a1 1 0 1 0 0 2 1 1 0 0 0 0-2Zm9-5a1 1 0 1 1 0 2 1 1 0 0 1 0-2Z" fill="#000" fill-rule="nonzero"/></svg>