<svg width="44" height="44" xmlns="http://www.w3.org/2000/svg"><path d="M41 12a3 3 0 0 1 .985 5.835c.01.053.015.108.015.165v17a2 2 0 0 1-2 2H26v5h3a1 1 0 0 1 0 2H15a1 1 0 0 1 0-2h3v-5H4a2 2 0 0 1-2-2v-7a1 1 0 0 1 2 0v1h36V18c0-.057.005-.112.014-.166A3 3 0 0 1 41 12ZM24 37h-4v5h4v-5Zm16-6H4v4h36v-4Zm-18 1a1 1 0 1 1 0 2 1 1 0 0 1 0-2Zm6.039-9.464 2.828 2.828a1 1 0 0 1-1.414 1.414l-2.829-2.828a1 1 0 0 1 1.415-1.414ZM3 24a1 1 0 1 1 0 2 1 1 0 0 1 0-2ZM19 5a1 1 0 0 1 0 2H4v10.171a3.001 3.001 0 1 1-2 0V7a2 2 0 0 1 2-2h15Zm6.917 15.414a1 1 0 1 1-1.414 1.414 1 1 0 0 1 1.414-1.414Zm-2.121-9.192a6 6 0 0 1-4.742 10.222c-.738-.218-1.059-.593-.964-1.128.095-.534.522-.82 1.28-.856a4 4 0 1 0-3.79-3.538c.035.853-.197 1.351-.698 1.495-.5.144-.902-.1-1.204-.733a6 6 0 0 1 10.118-5.462ZM3 19a1 1 0 1 0 0 2 1 1 0 0 0 0-2Zm13.725-.707a1 1 0 1 1-1.414 1.414 1 1 0 0 1 1.414-1.414ZM41 14a1 1 0 1 0 0 2 1 1 0 0 0 0-2Zm-1-9a2 2 0 0 1 2 2v2a1 1 0 0 1-2 0V7H25a1 1 0 0 1 0-2h15ZM22 5a1 1 0 1 1 0 2 1 1 0 0 1 0-2Z" fill="#000" fill-rule="evenodd"/></svg>