<svg width="24" height="24" viewBox="0 0 24 24" fill="none" xmlns="http://www.w3.org/2000/svg">
<path d="M0 2C0 0.895431 0.895431 0 2 0H22C23.1046 0 24 0.895431 24 2C24 3.10457 23.1046 4 22 4H2C0.89543 4 0 3.10457 0 2Z" fill="#06152A"/>
<path d="M0 12C0 10.8954 0.895431 10 2 10H22C23.1046 10 24 10.8954 24 12C24 13.1046 23.1046 14 22 14H2C0.89543 14 0 13.1046 0 12Z" fill="#06152A"/>
<path d="M24 22C24 20.8954 23.1046 20 22 20H2C0.89543 20 0 20.8954 0 22C0 23.1046 0.895431 24 2 24H22C23.1046 24 24 23.1046 24 22Z" fill="#06152A"/>
</svg>